<svg id="b1a8664d-6c00-4d13-b63b-1d4c17dc20b1" data-name="eb683038-e625-4d84-9081-322be1e7cfb8" xmlns="http://www.w3.org/2000/svg" viewBox="0 0 463.43 500"><path d="M407,410l-75-46.87c-22.33-17.79-20.36-77.93-20.36-77.93L231.72,314.4l-79.89-29.22s2,60.14-20.36,77.93L56.47,410S20.12,423.49,0,500H463.43C454.75,422.75,407,410,407,410Z" transform="translate(0 0)" fill="#ffdebc"/><polygon points="103.19 373.77 83.93 500 398.29 500 375.18 369.9 352.56 343.67 362.4 460.15 121.9 459.46 129.64 337.82 103.19 373.77" fill="#29aa79"/><path d="M152.34,274.45c0,57.42-8.36,69.22-8.36,69.22l170-22.32s-4.5-20.28,0-42L185,296.3Z" transform="translate(0 0)" fill="#fbc29a"/><path d="M233.21,50.88v0h-.43v0h-.57v0h-.42v0c-13.88.55-102.25,7.62-95.48,98,7.35,98.05,11,130.54,11,130.54s6.81,35.72,84.94,35.71v0h.57v0c78.13,0,84.94-35.71,84.94-35.71s3.61-32.49,11-130.54C335.45,58.5,247.08,51.43,233.21,50.88Z" transform="translate(0 0)" fill="#ffdebc"/><path d="M210.17,145.1S199,134.77,183,138.18s-20.38,8.47-20.38,8.47-.83,9.36,5,6.21,18.89-10.14,33.05-3.25c0,0,4.24,2.82,7.85,1.86C216.14,149.45,210.17,145.1,210.17,145.1Z" transform="translate(0 0)" fill="#b25b14"/><path d="M254.36,145.1s11.19-10.33,27.16-6.92,20.38,8.47,20.38,8.47.84,9.36-5,6.21-18.89-10.14-33-3.25c0,0-4.25,2.82-7.86,1.86C248.39,149.45,254.36,145.1,254.36,145.1Z" transform="translate(0 0)" fill="#b25b14"/><path d="M442.34,438.41s-1.36-47.27-19.86-69-30.15-36-22.21-65.57-8.46-60.29-13.75-60.29-16.92-37.5-6.35-65,13.22-45-5.82-64S389.47,96,331.64,42.65c-18.39-17-42.95-15.33-42.95-15.33l-24.33-19c-53.12-26-104.58,13.55-148,57C68.7,113,98.63,174.06,88.92,189.34,75.74,210.08,63,269.68,68.46,289.61S81.74,327,58.8,350,43,419.66,43,419.66l43.12-28.23c11,1.19,8.9,13.74,5.28,33.66s10.26,26,10.26,26c-9.65-9.66,8.85-24.15,8.85-24.15a88.66,88.66,0,0,1-5.83,27.77c7.85,1.81,13.89-25.95,13.89-25.95,0,24.75,17.82,20.75,17.82,20.75-15-10.26-5.27-31.61,7.57-46.11s32-43.46,19.28-55.54-15.73-54.27-3.47-67.69,14.86-47.1,2.78-56.75-22.65-50.92-5.15-55.39,22.14-30.85,25.16-59.23,91-34.86,91-34.86,3.47,6.91,20.39,44.45-16.25,93,32.57,57.84l-14.41,117.1s-9.94,52.37,16.86,75.64-4.31,78.79-4.31,78.79a46.15,46.15,0,0,0,18.55-27.5s-6.48,19,8.85,23.8c0,0-9-8.46,0-25.91s19,15.86,11.64,29.61c0,0,20.09-19.56,14.28-36.49,0,0-7.6-26.48,22.06-4.88Z" transform="translate(0 0)" fill="#dd620e"/><path d="M273.64,73.9a11.65,11.65,0,0,1,.6-2.34,4.36,4.36,0,0,1,.79-1.51c.34-.35.79-.41,1.17-.71,1.69-1.32,1.45-4.56,1.37-6.46,0-.74-.11-1.47-.18-2.2.05.55,0,0,0-.17.05-.51.1-1,.18-1.51a8.4,8.4,0,0,1,1.06-3.4c.62-.93,1.74-1.05,2.28-2.15,1-2,.53-4.73,0-6.82-.35-1.44-2.4-.52-2.05.91-.13-.54.06.28.09.45.1.54.18,1.08.23,1.63.08.87.27,2.42-.45,3.07-.33.3-.83.41-1.18.72a5,5,0,0,0-1.07,1.46,12.5,12.5,0,0,0-1.07,3.57,14.84,14.84,0,0,0-.13,3.82,20.8,20.8,0,0,1,0,3.44,6.25,6.25,0,0,1-.24,1.36c-.19.58-.13.35-.6.58-2,.94-2.73,3.9-3,6a1.11,1.11,0,1,0,2.19.31Z" transform="translate(0 0)" fill="#b75513"/><path d="M275.34,69.74a22.33,22.33,0,0,1,9,1.21c7.22,2.37,12.87,7.77,16.5,14.67.68,1.29,2.74.41,2.06-.9-3.86-7.32-9.73-13.23-17.39-15.83a24.79,24.79,0,0,0-10.45-1.46,1.17,1.17,0,0,0,.27,2.31Z" transform="translate(0 0)" fill="#b75513"/><path d="M249.13,52.73a22.19,22.19,0,0,1,9,1.2c7.22,2.37,12.87,7.78,16.5,14.68.68,1.29,2.74.4,2.05-.9-3.85-7.32-9.73-13.23-17.39-15.83a24.6,24.6,0,0,0-10.44-1.46,1.17,1.17,0,0,0,.27,2.31Z" transform="translate(0 0)" fill="#b75513"/><path d="M277.13,58.87a22.2,22.2,0,0,1,9-1.29c7.59.31,14.39,4,19.62,9.64,1,1.06,2.76-.35,1.77-1.41-5.53-6-12.64-10.09-20.72-10.52a25,25,0,0,0-10.51,1.43c-1.33.54-.51,2.69.83,2.15Z" transform="translate(0 0)" fill="#b75513"/><path d="M257.25,44.06a12.88,12.88,0,0,1,6.4.31c5.47,1.49,9.51,6,12.12,11.05.67,1.29,2.73.41,2.06-.9-2.39-4.65-5.69-8.78-10.27-11.11a17.38,17.38,0,0,0-8.87-1.88,9.1,9.1,0,0,0-1.71.22c-1.37.34-1.12,2.65.27,2.31Z" transform="translate(0 0)" fill="#b75513"/><path d="M159.65,107a45.22,45.22,0,0,1,5.24-14A56,56,0,0,1,190.5,69.2c9.12-4.25,19-6.16,28.83-6.74,1.42-.08,1.15-2.39-.27-2.31-15.92.94-32.19,5.61-44.51,16.95a57.58,57.58,0,0,0-15.61,24.05,35.72,35.72,0,0,0-1.48,5.57,1.11,1.11,0,1,0,2.19.31Z" transform="translate(0 0)" fill="#b75513"/><path d="M148.53,75a39.29,39.29,0,0,1,5.22-12.29,51.82,51.82,0,0,1,24.46-20.6A77.28,77.28,0,0,1,205,36.64c1.32,0,1.05-2-.27-1.9-15.06.59-30.2,4.62-41.62,14.12A51,51,0,0,0,148,69.71a31.13,31.13,0,0,0-1.53,5c-.23,1.21,1.81,1.48,2,.26Z" transform="translate(0 0)" fill="#b75513"/><path d="M106.57,178.64a67.54,67.54,0,0,1-1.15-11.72,104.11,104.11,0,0,1,3.12-28.31c.24-1-2-1.28-2.19-.31a103.8,103.8,0,0,0-3.1,28.7,69,69,0,0,0,1.15,11.76c.21,1,2.38.89,2.17-.12Z" transform="translate(0 0)" fill="#b75513"/><path d="M336.72,188.18a148.2,148.2,0,0,0,2.71-19.45,210.77,210.77,0,0,0-1-46,1.11,1.11,0,1,0-2.19.32,208.14,208.14,0,0,1,1,46,147.91,147.91,0,0,1-2.65,18.85c-.33,1.46,1.86,1.76,2.18.3Z" transform="translate(0 0)" fill="#b75513"/><path d="M330.65,178.17c-1-15.19-.89-30.56-1-45.79,0-1.5-2.21-1.17-2.2.32.13,15.23,0,30.59,1,45.79.1,1.49,2.3,1.17,2.19-.32Z" transform="translate(0 0)" fill="#b75513"/><path d="M328.12,218.81a146.82,146.82,0,0,0-2.44,19.49,210.62,210.62,0,0,0,1.65,46,1.11,1.11,0,1,0,2.19-.35,208,208,0,0,1-1.61-46,146.09,146.09,0,0,1,2.4-18.88c.3-1.47-1.89-1.74-2.19-.28Z" transform="translate(0 0)" fill="#b75513"/><path d="M334.32,228.74c1.25,15.18,1.32,30.54,1.66,45.77,0,1.5,2.22,1.14,2.19-.35-.34-15.23-.41-30.59-1.66-45.77-.12-1.49-2.31-1.14-2.19.35Z" transform="translate(0 0)" fill="#b75513"/><path d="M137.11,170.78c-3.41,6-5.19,13.16-5.87,19.93-1.5,15.19,4.2,29.39,14.5,40.45.91,1,2.39-.5,1.47-1.48-10.11-10.86-15.48-24.75-13.81-39.62a48,48,0,0,1,5.52-18.23,1,1,0,0,0-1.81-1.05Z" transform="translate(0 0)" fill="#b75513"/><path d="M135,333a52.68,52.68,0,0,1,8.2,19.17,33.85,33.85,0,0,1-.65,17.67c-2.59,7.79-8.55,13.59-15.41,17.79a1,1,0,0,0,1,1.8c10.12-6.19,17.43-15.64,17.93-27.8.36-8.55-2.35-17.07-6.28-24.57a46.72,46.72,0,0,0-3-5.11c-.77-1.09-2.58-.05-1.81,1.05Z" transform="translate(0 0)" fill="#b75513"/><path d="M122.06,211.85a88.16,88.16,0,0,0,2.83,8.4,63.27,63.27,0,0,0,7.7,15,20.93,20.93,0,0,0,6.14,5.9,1,1,0,0,0,1.05-1.8c-4.4-2.56-7.22-7.48-9.46-11.89a91.55,91.55,0,0,1-5.39-13.33c-.31-.94-.6-1.88-.86-2.82a1,1,0,0,0-2,.55Z" transform="translate(0 0)" fill="#b75513"/><path d="M87.74,391.28c2.79-2.91,4.71-6.85,6.27-10.5,4.46-10.46,5.85-22,5.69-33.3a1,1,0,0,0-2.09,0c.16,11-1.15,22.39-5.56,32.61-1.45,3.35-3.22,7-5.79,9.71-.93,1,.54,2.45,1.48,1.48Z" transform="translate(0 0)" fill="#b75513"/><path d="M67.81,403.44A16.27,16.27,0,0,0,73,399.23c4-4.57,6.42-10.42,7.76-16.31a73,73,0,0,0,1.57-17.12,1,1,0,0,0-2.08,0c.12,8.5-.71,17.4-4.38,25.19a24.65,24.65,0,0,1-7.41,9.61,9.51,9.51,0,0,1-1.7,1c-1.23.54-.17,2.34,1,1.81Z" transform="translate(0 0)" fill="#b75513"/><path d="M118.83,408.28l-8,15.88-1.13,2.22c-.6,1.19,1.2,2.25,1.8,1.05l8-15.87,1.13-2.23c.61-1.19-1.19-2.25-1.8-1.05Z" transform="translate(0 0)" fill="#b75513"/><path d="M105,208.73c-6,11.77-8.73,26.45-6.65,39.5a44.6,44.6,0,0,0,5.22,15.07c3.09,5.42,7.89,9.44,11.12,14.73,5.93,9.72,5.89,21.23,2.25,31.75a56.74,56.74,0,0,1-9.09,16.9c-.84,1,.63,2.52,1.47,1.48,8.68-10.73,14.32-26.08,11.62-39.84a35.58,35.58,0,0,0-6.7-14.61c-4-5.21-8.32-9.51-10.94-15.64C99,248.14,99,237,101.17,226.53a67.66,67.66,0,0,1,5.6-16.75c.61-1.19-1.18-2.25-1.8-1.05Z" transform="translate(0 0)" fill="#b75513"/><path d="M107.65,285.7a11.56,11.56,0,0,1,1.85,5.5c.68,5.91-1.6,11.74-4.53,16.76a1,1,0,0,0,1.8,1.05c3.11-5.32,5.51-11.55,4.82-17.81a13.86,13.86,0,0,0-2.14-6.55c-.79-1.07-2.6,0-1.8,1.05Z" transform="translate(0 0)" fill="#b75513"/><path d="M379,285c-4.59,12.13-7.55,26-6.62,39,.57,8,3,16.35,9.5,21.63a87.64,87.64,0,0,1,22,25.95,102.15,102.15,0,0,1,8.43,19.08c.4,1.28,2.41.73,2-.56-4.49-14.49-12.69-29-23.51-39.67-3.62-3.55-8.31-6.14-11.28-10.3a28.62,28.62,0,0,1-4.6-12c-1.49-9-.28-18.32,1.64-27.11A109,109,0,0,1,381,285.54c.47-1.26-1.54-1.8-2-.55Z" transform="translate(0 0)" fill="#b75513"/><path d="M393.81,400.18c-2.7-1.86-5.63-5.5-7.67-8.46-6.32-9.14-9.89-19.91-12-30.74-.25-1.32-2.26-.76-2,.55,2.64,13.82,7.89,29,18.55,38.77a18.4,18.4,0,0,0,2,1.68c1.11.76,2.15-1.05,1.05-1.8Z" transform="translate(0 0)" fill="#b75513"/><path d="M395.15,380.11l16.61,32.26,2.38,4.63c.61,1.19,2.51.33,1.89-.87l-16.6-32.26-2.38-4.63c-.61-1.19-2.51-.33-1.9.87Z" transform="translate(0 0)" fill="#b75513"/><path d="M354.51,397.37l6.43,17.07.91,2.43c.47,1.24,2.48.7,2-.56l-6.42-17.07-.92-2.43c-.47-1.24-2.48-.7-2,.56Z" transform="translate(0 0)" fill="#b75513"/><path d="M372.36,267.81a67.15,67.15,0,0,0-5.83,12.44c-3,8.3-4.64,17.24-3.25,26,.21,1.32,2.22.76,2-.55-1.35-8.58.43-17.35,3.42-25.41a64.77,64.77,0,0,1,5.45-11.47c.71-1.14-1.1-2.19-1.8-1.05Z" transform="translate(0 0)" fill="#b75513"/><path d="M343.81,359.64c-8.39-5.27-11.4-16.88-13.21-26a107.09,107.09,0,0,1-2.12-18.46,1,1,0,0,0-2.09,0,109.11,109.11,0,0,0,1.2,13.14c1.17,8.16,3,16.56,7,23.86a24.28,24.28,0,0,0,8.17,9.24c1.14.72,2.19-1.08,1.05-1.8Z" transform="translate(0 0)" fill="#b75513"/><path d="M324.68,179.35S326,159.85,343.3,172s4.77,55.4-4.52,67.17-21.31,6.73-21.31,6.73Z" transform="translate(0 0)" fill="#ffdebc"/><path d="M343.56,198.59c-.1-1.07-.26-2.14-.43-3.2-.08-.5-.17-1-.26-1.5l-.15-.82c0-.13-.05-.26-.08-.39.08.39,0-.16-.05-.24-.27-1.27-.58-2.54-.94-3.79a37.33,37.33,0,0,0-1.29-3.73c-.12-.3-.24-.59-.37-.87l-.19-.4a2.26,2.26,0,0,0-.11-.22c.09.18.05.09,0,0a15.35,15.35,0,0,0-.92-1.57c-.15-.22-.3-.43-.46-.64l-.27-.34c-.24-.3.08.07-.13-.15a8.22,8.22,0,0,0-1.17-1c.35.25-.21-.11-.34-.17l-.34-.16c-.33-.17.14,0-.07,0l-.68-.15c-.21,0-.31,0,0,0h-.44l-.45,0c-.15,0-.45.09-.12,0a7.65,7.65,0,0,0-1,.3l-.44.2c-.06,0-.25.13,0,0l-.28.16c-.35.21-.68.42-1,.66a22.75,22.75,0,0,0-4.49,4.73c-1.17,1.52-3.4-.44-2.24-2,2.11-2.78,4.88-6,8.44-6.89a6.85,6.85,0,0,1,6.88,2.43,20.81,20.81,0,0,1,3.81,7.26,58.09,58.09,0,0,1,2,8c.25,1.43.48,2.88.62,4.33.18,1.91-2.78,2.1-3,.2Z" transform="translate(0 0)" fill="#fbc29a"/><path d="M322.51,193.13c3.33-.6,7.56.3,9,3.7s-.05,8-1.78,11a65.79,65.79,0,0,1-4.71,6.24,19,19,0,0,1-2.07,2.73c-.38.34.15-.8.22-.48a1.93,1.93,0,0,1-.1.45c-.24,1.39-.58,2.77-.8,4.16a48.93,48.93,0,0,0-.67,6,13.13,13.13,0,0,0,.54,5.1c.15.38,0-.05.15.29.06.11.38.52.14.23.08.1.5.37.15.16.3.19.13.1.2.11.38,0,.14,0,.25,0s.39,0,.3,0a5.43,5.43,0,0,0,1.29-.52c3.74-2.07,6.65-6,9.28-9.23,1.2-1.49,3.43.47,2.23,2-2.6,3.24-5.38,6.63-8.8,9.06-1.6,1.14-3.82,2.29-5.8,1.4-3.58-1.61-3-7.39-2.77-10.52a43.68,43.68,0,0,1,1.49-9.3,5.09,5.09,0,0,1,.94-1.52l2.85-3.75,2.71-3.57a12.32,12.32,0,0,0,1.8-4.11c.44-1.51.9-3.44.15-4.95a3.26,3.26,0,0,0-1.95-1.53,7.87,7.87,0,0,0-4-.18c-1.88.34-2.07-2.63-.2-3Z" transform="translate(0 0)" fill="#fbc29a"/><path d="M261.24,254.48H203.75s-4.67,20.16,28.75,20.5C265.91,274.64,261.24,254.48,261.24,254.48Z" transform="translate(0 0)" fill="#f9b392"/><path d="M261.3,250.7s-9.18,1.75-28.8,1.57c-19.63.18-28.81-1.57-28.81-1.57-2.71,16.65,28.81,16.74,28.81,16.74S264,267.35,261.3,250.7Z" transform="translate(0 0)" fill="#fff5ee"/><path d="M203.69,250.7s11.16-6.58,27.66-2.5c0,0,21.14-5.06,30,2.5C261.3,250.7,236.82,262.24,203.69,250.7Z" transform="translate(0 0)" fill="#f9b392"/><ellipse cx="187.64" cy="179.65" rx="4.86" ry="9.23" fill="#4c3422"/><ellipse cx="271.25" cy="179.65" rx="4.86" ry="9.23" fill="#4c3422"/><path d="M229.72,173.07a105.71,105.71,0,0,0-8.54,19.06c-3,9-6.05,21.32.21,29.63,4,5.3,10.72,6.84,17,7,2.24,0,2.24-3.43,0-3.48-5.07-.11-10.74-1.12-14.09-5.32-2.7-3.4-3.19-8-3-12.18.48-9.35,4.2-18.6,8.23-26.94,1-2,2-4,3.13-6a1.74,1.74,0,0,0-3-1.75Z" transform="translate(0 0)" fill="#fbc29a"/><path d="M221.61,290.83a66,66,0,0,0,9,1c5,.22,10.33,0,14.87-2.17,2-1,.28-4-1.73-3-4,2-9,1.91-13.35,1.7q-2.88-.15-5.73-.53l-.74-.1-.7-.11-.65-.11a1.79,1.79,0,0,0-2.15,1.2,1.76,1.76,0,0,0,1.2,2.15Z" transform="translate(0 0)" fill="#fbc29a"/><circle cx="266.38" cy="235.85" r="1.63" fill="#4c3422"/><path d="M147.22,164.89H214.5l-1.74-1.74c1.38,11.19-1.94,24.82-11.77,31.33-9.17,6.07-23,6.17-32.81,1.71-7.94-3.59-13.44-10.62-16.37-18.69A44.3,44.3,0,0,1,149,163.15c0-2.24-3.5-2.24-3.48,0,.15,13.38,6.65,28.07,18.56,34.83,9.92,5.63,23.64,6.29,34.13,1.9,8.57-3.59,14.21-11.06,16.64-19.89a44.32,44.32,0,0,0,1.43-16.84,1.78,1.78,0,0,0-1.74-1.74H147.22A1.74,1.74,0,0,0,147.22,164.89Z" transform="translate(0 0)" fill="#29aa79"/><path d="M241.42,164.89h67.29L307,163.15c1.37,11.19-1.94,24.82-11.78,31.33-9.17,6.07-23,6.17-32.81,1.71-7.94-3.59-13.44-10.62-16.36-18.69a44.31,44.31,0,0,1-2.86-14.35c0-2.24-3.5-2.24-3.47,0,.14,13.38,6.65,28.07,18.55,34.83,9.92,5.63,23.64,6.29,34.13,1.9C301,196.29,306.58,188.82,309,180a44.72,44.72,0,0,0,1.43-16.84,1.8,1.8,0,0,0-1.74-1.74H241.42A1.74,1.74,0,0,0,241.42,164.89Z" transform="translate(0 0)" fill="#29aa79"/><path d="M308.23,181l19.95-10L331,169.5c2-1,.25-4-1.75-3l-19.95,10L306.47,178c-2,1-.24,4,1.76,3Z" transform="translate(0 0)" fill="#29aa79"/><path d="M215.35,172.75l22.28.51,3.21.07c2.24,0,2.24-3.42,0-3.47l-22.28-.52-3.21-.07c-2.24-.05-2.24,3.43,0,3.48Z" transform="translate(0 0)" fill="#29aa79"/><rect x="145.15" y="158.58" width="70.83" height="6.27" fill="#4c3422"/><rect x="239.75" y="158.58" width="70.83" height="6.27" fill="#4c3422"/></svg>