<svg id="eeb05ab4-c83f-4b49-8ea6-1dbe2283b922" data-name="a29d3fa3-4332-4ab1-a6e6-8c79585b5299" xmlns="http://www.w3.org/2000/svg" viewBox="0 0 422.91 500"><path d="M370.15,398.55l-74.52-44.86c-23.5-18.73-21.43-74.75-21.43-74.75l-64.12,23.67-59.7-23.67s.8,55.77-21.44,74.75L52.22,398.55S7.83,423.93,0,499H422.37C414.53,423.93,370.15,398.55,370.15,398.55Z" transform="translate(0 0)" fill="#ffdebc"/><path d="M150.38,278.94c-.78,33-7.12,52.35-7.12,52.35L276.36,313s-2.46-21.16-2.16-34.09H150.38Z" transform="translate(0 0)" fill="#fbc29a"/><path d="M211.93,24.74h-1.49c-14.61.59-107.64,8-100.51,103.17,7.73,103.23,26.23,137.43,26.23,137.43s9.93,35.74,74.72,33.17h.6c73.08-4,74.72-33.17,74.72-33.17s18.5-34.2,26.23-137.43C319.56,32.77,226.54,25.33,211.93,24.74Z" transform="translate(0 0)" fill="#ffdebc"/><path d="M308.16,154.07l-13.31,74.38c-3,47.88-26.54,57-26.54,57-1.09,0,6,24.28,12.34,45.88,11.31,38.59,69.28,53.95,98.68,70.86L341.86,143S335.33-15,212,1.16C88.58-15,82,143,82,143L44.57,402.15c29.41-16.91,87.37-32.27,98.69-70.86,6.33-21.6,11-44.46,10.09-45.49,0,0-20.36-9.49-24.3-57.35l-10-71.34s-1-103.06,93-105C212,52.12,306,56,308.16,154.07Z" transform="translate(0 0)" fill="#4c3422"/><ellipse cx="173.55" cy="162.69" rx="5.27" ry="10" fill="#4c3422"/><ellipse cx="252.1" cy="162.69" rx="5.27" ry="10" fill="#4c3422"/><path d="M214.41,51.31a44.68,44.68,0,0,0,1.21-6.59c.26-2.47.62-6.19-1.5-8l.29,1.1c1.37-3.54,2.34-7.48,1.33-11.2-1.11-4.05-1.66-9.08-.44-13.14a1.13,1.13,0,1,0-2.18-.6c-1.31,4.35-.79,9.68.37,14,.92,3.47,0,7-1.26,10.29a1.07,1.07,0,0,0,.29,1.1c1.72,1.49,1,5.3.73,7.25a41.23,41.23,0,0,1-1,5.16,1.13,1.13,0,1,0,2.18.6h0Z" transform="translate(0 0)" fill="#321b0f"/><path d="M215,38a11.15,11.15,0,0,0-4.64-2.46c-5.34-1.74-11.3-1.61-16.83-1.07a114.75,114.75,0,0,0-17.33,3.24,1.13,1.13,0,1,0,.6,2.18c9.42-2.43,19.9-4.7,29.66-3A18.61,18.61,0,0,1,212,38.6a5.31,5.31,0,0,1,1.44,1c1,1.07,2.58-.53,1.6-1.6Z" transform="translate(0 0)" fill="#321b0f"/><path d="M246.22,21.39a9.08,9.08,0,0,0-3.82-2.21c-4.29-1.53-9.15-1.43-13.6-.95a84.61,84.61,0,0,0-14,2.87,1.13,1.13,0,1,0,.61,2.18c7.47-2.12,15.94-4.15,23.74-2.63a13.82,13.82,0,0,1,4.37,1.5c.69.41.69.33,1.11.84,1,1.11,2.54-.49,1.6-1.6Z" transform="translate(0 0)" fill="#321b0f"/><path d="M214.73,21.62a7.26,7.26,0,0,0-3.11-2.34c-3.47-1.56-7.47-1.53-11.18-1a55.37,55.37,0,0,0-11.19,2.86c-1.36.48-.78,2.67.6,2.18,5.75-2.05,12.59-4.11,18.74-2.65a9.75,9.75,0,0,1,3.5,1.51l.1.07.16.14.33.32c.25.23.19.23.09.09.81,1.2,2.77.07,2-1.14Z" transform="translate(0 0)" fill="#321b0f"/><path d="M238.39,36.3a7.18,7.18,0,0,0-3.1-2.34c-3.48-1.56-7.48-1.53-11.19-1a55.28,55.28,0,0,0-11.18,2.86c-1.37.49-.78,2.67.6,2.18,5.75-2,12.59-4.1,18.74-2.64a9.34,9.34,0,0,1,3.5,1.51c.26.18,0,0,.09.07L236,37l.33.32c.25.23.19.23.09.08.81,1.21,2.77.07,2-1.14Z" transform="translate(0 0)" fill="#321b0f"/><path d="M113,114.57c.07,15.86,1.08,31.74,1.9,47.57.07,1.45,2.33,1.45,2.26,0-.82-15.83-1.82-31.71-1.9-47.57a1.13,1.13,0,0,0-2.26,0Z" transform="translate(0 0)" fill="#321b0f"/><path d="M106.47,136.2a53.6,53.6,0,0,0,.91,10.8c1,5.77,3.07,12.16,7.85,15.94,1.13.89,2.74-.7,1.6-1.6-4.57-3.62-6.37-9.7-7.32-15.22a50,50,0,0,1-.77-9.92,1.14,1.14,0,0,0-2.27,0Z" transform="translate(0 0)" fill="#321b0f"/><path d="M314.72,114.57c-.07,15.86-1.08,31.74-1.9,47.57-.07,1.45-2.33,1.45-2.26,0,.82-15.83,1.82-31.71,1.9-47.57a1.13,1.13,0,1,1,2.26,0Z" transform="translate(0 0)" fill="#321b0f"/><path d="M321.25,136.2a53.6,53.6,0,0,1-.91,10.8c-1,5.77-3.07,12.16-7.85,15.94-1.13.89-2.74-.7-1.6-1.6,4.57-3.62,6.37-9.7,7.32-15.22a50,50,0,0,0,.77-9.92,1.14,1.14,0,0,1,2.27,0Z" transform="translate(0 0)" fill="#321b0f"/><path d="M129,236.3c-2.34,15.68-4.91,58.81-6.51,74.58-.15,1.45-2.38,1.1-2.24-.35,1.6-15.77,4.17-58.89,6.51-74.57a1.13,1.13,0,1,1,2.24.34Z" transform="translate(0 0)" fill="#321b0f"/><path d="M130,238a251.52,251.52,0,0,1-5,25.22c-3.3,13.38-8,28-15,36-1.65,1.9-3-2.13-1.3-4,6.69-7.67,11-21.64,14.12-34.44,1.84-7.54,3.42-15.4,4.51-23.18.47-3.43,3.14-3,2.66.41Z" transform="translate(0 0)" fill="#321b0f"/><path d="M294.94,236.3c2.34,15.68,4.91,58.81,6.51,74.58.15,1.45,2.38,1.1,2.23-.35-1.59-15.77-4.17-58.89-6.5-74.57a1.13,1.13,0,1,0-2.24.34Z" transform="translate(0 0)" fill="#321b0f"/><path d="M293.88,238a251.52,251.52,0,0,0,5,25.22c3.3,13.38,8,28,15,36,1.66,1.9,3-2.13,1.31-4-6.69-7.67-11-21.64-14.12-34.44-1.84-7.54-3.42-15.4-4.51-23.18-.47-3.43-3.14-3-2.66.41Z" transform="translate(0 0)" fill="#321b0f"/><line x1="86.25" y1="281.33" x2="68.37" y2="399.26" fill="none"/><path d="M85.16,281,69.47,384.53,67.28,399c-.22,1.42,2,2,2.18.6L85.15,296.1l2.19-14.43c.22-1.42-2-2-2.18-.6Z" transform="translate(0 0)" fill="#321b0f"/><line x1="338.43" y1="281.33" x2="356.31" y2="399.26" fill="none"/><path d="M337.34,281.63,353,385.13l2.19,14.43c.22,1.43,2.4.83,2.18-.6l-15.69-103.5L339.52,281c-.22-1.43-2.4-.82-2.18.6Z" transform="translate(0 0)" fill="#321b0f"/><path d="M353.37,304.76c1.87,15.74,2.83,31.63,4,47.44.1,1.44-2.14,1.73-2.24.27-1.14-15.81-2.1-31.69-4-47.43a1.13,1.13,0,1,1,2.25-.28Z" transform="translate(0 0)" fill="#321b0f"/><path d="M91,335.83c-1.08,15.82-3.1,31.6-4.93,47.35-.17,1.44-2.42,1.3-2.26-.15,1.83-15.74,3.85-31.53,4.94-47.34a1.13,1.13,0,0,1,2.25.14Z" transform="translate(0 0)" fill="#321b0f"/><path d="M123.91,166.9s-9.75-18.62-23.88-5.07,3.46,51.51,13.65,61,19.7,4.41,19.7,4.41Z" transform="translate(0 0)" fill="#ffdebc"/><path d="M103.56,186.3c-.06-1-.07-2-.06-3v-2.79c.07-1.2.17-2.41.32-3.6a31.56,31.56,0,0,1,.66-3.62c.07-.28.14-.56.22-.85a1.43,1.43,0,0,1,.11-.39l.07-.21c-.06.18,0,.09,0,0,.19-.54.39-1.06.63-1.58.1-.22.21-.43.33-.65l.2-.35c.17-.31-.07.08.1-.16a8.87,8.87,0,0,1,.93-1.1c-.29.27.17-.14.28-.21l.29-.19c.28-.2-.12,0,.06,0l.61-.23c.18-.07.27-.07,0,0l.4-.07h.53a6,6,0,0,1,.93.14l.43.11c.05,0,.24.09,0,0l.29.11c.34.14.68.29,1,.46a21.29,21.29,0,0,1,4.8,3.7c1.28,1.24,3-.88,1.78-2.11-2.33-2.25-5.34-4.86-8.73-5.13a6.4,6.4,0,0,0-6,3.2,19.07,19.07,0,0,0-2.46,7.21,51.23,51.23,0,0,0-.66,7.62v4.06c.1,1.78,2.86,1.54,2.76-.24Z" transform="translate(0 0)" fill="#fbc29a"/><path d="M122.1,178.31c-3.14-.08-6.89,1.36-7.73,4.68s1.18,7.37,3.18,9.82a62,62,0,0,0,5.2,5.05,18.48,18.48,0,0,0,2.29,2.22c.4.26-.25-.72-.27-.41a1.34,1.34,0,0,0,.16.39c.41,1.25.92,2.47,1.32,3.72a44.58,44.58,0,0,1,1.47,5.44,12.07,12.07,0,0,1,.22,4.75c-.08.38,0,0-.09.29,0,.11-.28.53-.09.23-.07.11-.41.42-.13.18-.24.21-.1.1-.16.12-.35.1-.12.05-.23.07a.85.85,0,0,1-.27,0,4.2,4.2,0,0,1-1.26-.29c-3.73-1.37-6.95-4.53-9.82-7.15-1.31-1.2-3.09.91-1.77,2.11,2.85,2.6,5.87,5.32,9.35,7.07,1.64.82,3.84,1.56,5.53.46,3.06-2,1.72-7.21,1.05-10a39.91,39.91,0,0,0-2.69-8.33,4.63,4.63,0,0,0-1.07-1.26l-3.14-3-3-2.9a11.76,11.76,0,0,1-2.23-3.51c-.62-1.33-1.31-3-.84-4.52a3,3,0,0,1,1.57-1.69,7.37,7.37,0,0,1,3.69-.73c1.77,0,1.52-2.71-.24-2.76Z" transform="translate(0 0)" fill="#fbc29a"/><path d="M303.26,166.9s9.76-18.62,23.88-5.07-3.46,51.51-13.65,61-19.7,4.41-19.7,4.41Z" transform="translate(0 0)" fill="#ffdebc"/><path d="M323.62,186.3c.05-1,.06-2,.05-3v-2.79c-.06-1.2-.17-2.41-.32-3.6s-.37-2.42-.65-3.62c-.07-.28-.15-.56-.23-.85a1.43,1.43,0,0,0-.11-.39c0-.13,0-.14-.07-.21.06.18,0,.09,0,0a14.44,14.44,0,0,0-.63-1.58c-.1-.22-.21-.43-.32-.65a4,4,0,0,1-.2-.35c-.18-.31.06.08-.1-.16a7.74,7.74,0,0,0-1-1.1c.28.27-.18-.14-.29-.21a2.9,2.9,0,0,0-.29-.19c-.28-.2.12,0-.06,0l-.61-.23c-.18-.07-.27-.07,0,0l-.4-.07h-.53a5.68,5.68,0,0,0-.92.14l-.44.11h0l-.29.11c-.34.14-.68.29-1,.46a21.58,21.58,0,0,0-4.8,3.7c-1.28,1.24-3.05-.88-1.77-2.11,2.32-2.25,5.33-4.86,8.72-5.13a6.4,6.4,0,0,1,6,3.2,19.07,19.07,0,0,1,2.46,7.21,51.23,51.23,0,0,1,.66,7.62v4.06c-.1,1.78-2.85,1.54-2.75-.24Z" transform="translate(0 0)" fill="#fbc29a"/><path d="M305.07,178.31c3.14-.08,6.9,1.36,7.74,4.68s-1.19,7.37-3.19,9.82a62,62,0,0,1-5.2,5.05,17.17,17.17,0,0,1-2.29,2.22c-.4.26.25-.72.27-.41a1.46,1.46,0,0,1-.16.39c-.41,1.25-.91,2.47-1.32,3.72a44.58,44.58,0,0,0-1.47,5.44,12.26,12.26,0,0,0-.22,4.75c.08.38,0,0,.09.29,0,.11.28.53.1.23.06.11.4.42.12.18.25.21.1.1.16.12.35.1.12.05.23.07s.37,0,.27,0a4.2,4.2,0,0,0,1.26-.29c3.73-1.37,7-4.53,9.82-7.15,1.31-1.2,3.09.91,1.78,2.11-2.85,2.6-5.88,5.32-9.36,7.07-1.64.82-3.83,1.56-5.53.46-3.05-2-1.72-7.21-1.05-10a39.91,39.91,0,0,1,2.69-8.33,4.63,4.63,0,0,1,1.07-1.26l3.14-3,3-2.9a11.76,11.76,0,0,0,2.23-3.51c.62-1.33,1.31-3,.84-4.52a3,3,0,0,0-1.57-1.69,7.31,7.31,0,0,0-3.68-.73c-1.78,0-1.53-2.71.23-2.76Z" transform="translate(0 0)" fill="#fbc29a"/><path d="M148.17,135.5s11.67-11.78,29.2-8.85,24.76,8.47,24.76,8.47-.82,9.89-7.36,6.75-21-10.11-36.1-1.92c0,0-4.47,3.27-8.45,2.4C141.89,140.53,148.17,135.5,148.17,135.5Z" transform="translate(0 0)" fill="#4c3422"/><path d="M284.27,135.5s-11.67-11.78-29.2-8.85-24.76,8.47-24.76,8.47.82,9.89,7.36,6.75,21-10.11,36.1-1.92c0,0,4.47,3.27,8.45,2.4C290.55,140.53,284.27,135.5,284.27,135.5Z" transform="translate(0 0)" fill="#4c3422"/><circle cx="211.18" cy="110.25" r="6.91" fill="#e25f4d"/><path d="M372.27,390.9l-74.84-35.37s-3.47,41.35-85.81,40.56c-82.34.79-85.81-40.56-85.81-40.56L51,390.9C.67,409.28.33,500,.33,500H422.91S422.57,409.28,372.27,390.9Z" transform="translate(0 0)" fill="#ef8f26"/><line x1="212.25" y1="500" x2="217.02" y2="500" fill="none"/><path d="M242.34,239.34H180s-5.06,21.85,31.15,22.22C247.4,261.19,242.34,239.34,242.34,239.34Z" transform="translate(0 0)" fill="#f9b392"/><path d="M242.4,235.25s-10,1.89-31.22,1.69c-21.26.2-31.21-1.69-31.21-1.69-2.94,18,31.21,18.14,31.21,18.14S245.34,253.29,242.4,235.25Z" transform="translate(0 0)" fill="#fff5ee"/><path d="M180,235.25s12.09-7.13,30-2.72c0,0,22.91-5.48,32.46,2.72C242.4,235.25,215.87,247.75,180,235.25Z" transform="translate(0 0)" fill="#f9b392"/><path d="M190.09,268.37c6.67,1.88,13.9,3.76,20.87,3.68,7.12-.09,14.4-1.81,21.3-3.45,1.42-.34.82-2.52-.6-2.18-6.71,1.6-13.78,3.28-20.7,3.36s-13.78-1.76-20.27-3.59a1.13,1.13,0,1,0-.6,2.18Z" transform="translate(0 0)" fill="#fbc29a"/><path d="M205.81,156.78c-3.49,6.73-4.37,13.81-6.14,20.87-2.52,10.07-5,22.43,3.89,31.28,5.15,5.11,12,7.81,20.51,7.78,3.36,0,3.37-3.77,0-3.76-33.61.1-22.12-34.31-16.25-48.49.93-2.24,1.9-4.49,3-6.68s-3.88-3.26-5-1Z" transform="translate(0 0)" fill="#fbc29a"/><rect x="218.09" y="203.85" width="3.85" height="14.85" fill="#ef8f26"/><path d="M130.46,241.57v-7.48a6,6,0,1,0-2.67,0v7.48c-12.75.72-22.88,11.55-22.88,24.85h48.44C153.35,253.12,143.21,242.29,130.46,241.57Z" transform="translate(0 0)" fill="#ef8f26"/><path d="M295.13,241.57v-7.48a6,6,0,1,0-2.67,0v7.48c-12.75.72-22.89,11.55-22.89,24.85H318C318,253.12,307.88,242.29,295.13,241.57Z" transform="translate(0 0)" fill="#ef8f26"/><path d="M88.06,397.49a15.59,15.59,0,0,1,8.13,1.68c6.7,3.43,8,10.55,8.55,17.41.88,10.86,2.84,27.19,14.76,31.64,8.38,3.12,17.71-1.55,24.71-5.87,2.06-1.27.17-4.53-1.9-3.25-6.08,3.74-14.69,8.5-22,5.4-5.38-2.27-8-8.27-9.43-13.52-1.9-6.73-1.82-13.56-3-20.38-1-6.07-4.22-11.8-9.83-14.69a19.19,19.19,0,0,0-10-2.19c-2.4.21-2.42,4,0,3.77Z" transform="translate(0 0)" fill="#d37c1e"/><path d="M201.1,468.82c-.13,1,0-.15.1-.41a19.46,19.46,0,0,1,.59-2,15.39,15.39,0,0,1,3.29-5.49c5.39-5.73,13-4.54,20.06-3.69,10.47,1.26,26.2,2.22,32.44-8.43,4.4-7.51,1.92-17.23-.77-24.84-.8-2.28-4.44-1.3-3.63,1,2.36,6.67,5.1,15.75.92,22.31-3,4.66-8.89,6.2-14.07,6.67-6.57.59-13-.33-19.51-1.11-6.74-.81-13.91.59-18.54,5.9a19.49,19.49,0,0,0-4.65,10.13c-.3,2.4,3.47,2.38,3.77,0Z" transform="translate(0 0)" fill="#d37c1e"/><path d="M394.69,487.8a15.31,15.31,0,0,1-7-8.38c-2.56-7.85,2.75-14.73,6-21.44,4.4-9.09,9.43-22.37,1.49-31-5.64-6.16-15.12-7.16-23-7.38-2.43-.07-2.43,3.7,0,3.77,6.86.19,15.92.88,20.64,6.68,3.38,4.15,3,9.88,1.83,14.78-1.47,5.95-4.22,11.51-7.16,16.86C384.1,468,381.69,475,384.72,482a19.18,19.18,0,0,0,8.07,9c2.13,1.15,4-2.1,1.9-3.26Z" transform="translate(0 0)" fill="#d37c1e"/><path d="M15.84,487a19,19,0,0,0,14,5c9.51-.75,14.86-8.89,21.28-14.85,4.9-4.55,11.29-9.87,18.36-10C79,467,83.89,477.78,86.62,485.3c.82,2.26,4.46,1.29,3.63-1-2.83-7.8-7.1-17.21-15.62-20.12-6.35-2.17-13,.47-18.32,4a65,65,0,0,0-8.69,7.1c-3.63,3.46-6.74,7.8-11,10.49a15,15,0,0,1-18.11-1.41c-1.77-1.66-4.44,1-2.67,2.66Z" transform="translate(0 0)" fill="#d37c1e"/><path d="M287,459.51a14.91,14.91,0,0,1,15.21-1.2c4.69,2.43,7.33,6.94,10.37,11a78.79,78.79,0,0,0,8.11,9.48c4.81,4.66,11.09,9,18.12,8.29,9.42-1,15.4-10.22,19.39-17.84,1.12-2.14-2.13-4-3.25-1.9-3.94,7.51-10.58,18.12-20.63,15.69-7.32-1.73-13-8.41-17.32-14-5.22-6.7-9.67-14.67-18.94-15.86a19,19,0,0,0-13,3.12c-2,1.4-.08,4.67,1.9,3.26Z" transform="translate(0 0)" fill="#d37c1e"/><circle cx="151.15" cy="412.26" r="5.25" fill="#d37c1e"/><circle cx="55.91" cy="433.01" r="5.25" fill="#d37c1e"/><circle cx="258.43" cy="407.02" r="5.25" fill="#d37c1e"/><circle cx="168.3" cy="482.93" r="5.25" fill="#d37c1e"/><circle cx="195.36" cy="433.01" r="5.25" fill="#d37c1e"/><circle cx="366.22" cy="446.62" r="5.25" fill="#d37c1e"/><circle cx="379.33" cy="407.02" r="5.25" fill="#d37c1e"/><path d="M372.27,390.9l-74.84-35.37S246.83,411,209.83,500H310.5Z" transform="translate(0 0)" fill="#cc5842"/></svg>