<svg id="a0d4e7cb-cd66-468c-8eb2-8b5c8fb26239" data-name="a42ba711-1528-46cf-9573-39f49df04937" xmlns="http://www.w3.org/2000/svg" viewBox="0 0 418.06 499.88"><path d="M304.76,162.16s2.39-17.42,17.15-5.52.95,50-8.1,60-19.52,4.77-19.52,4.77Z" transform="translate(0.03 0)" fill="#ffdebc"/><path d="M110.52,161.13s-3.38-17.42-18.15-5.51-1,50,8.1,60S120,220.38,120,220.38Z" transform="translate(0.03 0)" fill="#ffdebc"/><path d="M320.54,180.55c0-1-.1-1.93-.19-2.89a12.28,12.28,0,0,0-.14-1.36l-.09-.74a.9.9,0,0,0-.05-.36V175c-.17-1.16-.37-2.31-.62-3.46a34.07,34.07,0,0,0-.93-3.43c-.09-.27-.18-.53-.28-.8-.05-.12-.1-.24-.14-.36l-.09-.21c.07.17,0,.08,0,0a11.23,11.23,0,0,0-.74-1.47,4.6,4.6,0,0,0-.37-.6,3.62,3.62,0,0,0-.22-.32c-.19-.29.07.06-.11-.15a6.75,6.75,0,0,0-1-1c.3.24-.18-.11-.29-.18l-.3-.16c-.28-.17.12,0-.06,0l-.6-.18c-.18-.06-.27,0,0,0h-.79c-.14,0-.41,0-.11,0a6.63,6.63,0,0,0-.88.21l-.41.15h0l-.26.12c-.33.17-.64.34-.95.53a20.72,20.72,0,0,0-4.31,4c-1.14,1.3-3-.6-1.9-1.9,2.06-2.36,4.75-5.12,8-5.67a6.17,6.17,0,0,1,6,2.59,18.65,18.65,0,0,1,3,6.75,51.6,51.6,0,0,1,1.27,7.3c.14,1.3.26,2.61.3,3.92.05,1.73-2.63,1.72-2.68,0Z" transform="translate(0.03 0)" fill="#fbc29a"/><path d="M304,172.93c3-.34,6.76.73,7.85,3.87s-.53,7.21-2.25,9.74a62.73,62.73,0,0,1-4.6,5.31,18.49,18.49,0,0,1-2,2.33c-.36.28.18-.71.23-.41a2.91,2.91,0,0,1-.12.39c-.3,1.23-.68,2.45-1,3.69a42.65,42.65,0,0,0-1,5.37,11.74,11.74,0,0,0,.18,4.61c.11.35,0,0,.11.27.05.1.31.49.11.22.07.09.43.36.13.15.26.18.11.09.17.11.34.07.12,0,.23,0h.26a5,5,0,0,0,1.19-.39c3.49-1.63,6.33-5,8.88-7.72,1.17-1.27,3.06.63,1.89,1.89-2.53,2.75-5.22,5.63-8.44,7.6-1.51.93-3.57,1.83-5.29.91-3.12-1.66-2.27-6.81-1.85-9.61a38.52,38.52,0,0,1,1.9-8.26,4.3,4.3,0,0,1,.93-1.3l2.78-3.19,2.65-3a11.27,11.27,0,0,0,1.86-3.57c.48-1.33,1-3,.43-4.43a2.9,2.9,0,0,0-1.65-1.5,7,7,0,0,0-3.62-.4c-1.71.19-1.7-2.49,0-2.68Z" transform="translate(0.03 0)" fill="#fbc29a"/><path d="M93.74,179.5c0-1,.1-1.94.19-2.9a12.28,12.28,0,0,1,.14-1.36l.09-.74a1.09,1.09,0,0,1,0-.36v-.22c.17-1.16.37-2.31.62-3.45a28.94,28.94,0,0,1,.93-3.43c.09-.27.18-.54.28-.81l.15-.36a1.8,1.8,0,0,1,.08-.21c-.07.17,0,.09,0,0a15.54,15.54,0,0,1,.74-1.47c.12-.2.24-.4.37-.6l.22-.32c.2-.29-.07.06.11-.15a7.87,7.87,0,0,1,1-1c-.3.24.18-.12.29-.19l.3-.16c.28-.16-.12,0,.06,0a3.28,3.28,0,0,0,.61-.18c.21-.06.27,0,0,0h.91a5.39,5.39,0,0,1,.88.22l.4.14h0l.27.13c.32.16.64.34.94.53a20.77,20.77,0,0,1,4.32,4c1.13,1.3,3-.6,1.89-1.89-2.06-2.37-4.74-5.13-8-5.68a6.17,6.17,0,0,0-6,2.59,18.65,18.65,0,0,0-3,6.75,51.74,51.74,0,0,0-1.27,7.31c-.14,1.3-.26,2.61-.3,3.92a1.34,1.34,0,1,0,2.68,0Z" transform="translate(0.03 0)" fill="#fbc29a"/><path d="M110.31,171.9c-3-.34-6.76.73-7.85,3.87s.53,7.21,2.26,9.74a61.34,61.34,0,0,0,4.6,5.32,17.72,17.72,0,0,0,2,2.32c.36.29-.18-.71-.22-.41a2.85,2.85,0,0,0,.11.39c.3,1.24.68,2.45,1,3.69a42.65,42.65,0,0,1,1,5.37,11.74,11.74,0,0,1-.18,4.61c-.11.36,0,0-.11.27,0,.11-.31.49-.11.22-.07.09-.43.37-.13.16-.26.18-.11.09-.17.1-.34.07-.12,0-.23,0H112a4.59,4.59,0,0,1-1.19-.38c-3.48-1.64-6.33-5-8.88-7.73-1.17-1.27-3.06.63-1.89,1.89,2.53,2.75,5.22,5.63,8.44,7.6,1.51.93,3.57,1.83,5.3.91,3.11-1.66,2.26-6.81,1.84-9.6a38.24,38.24,0,0,0-1.9-8.26,4.17,4.17,0,0,0-.93-1.31L110,187.5l-2.66-3a11.22,11.22,0,0,1-1.86-3.58c-.48-1.33-1-3-.43-4.43a3,3,0,0,1,1.66-1.5,7.16,7.16,0,0,1,3.61-.4c1.71.19,1.7-2.49,0-2.68Z" transform="translate(0.03 0)" fill="#fbc29a"/><path d="M361.19,401.07,289,357.61c-22.76-18.11-20.76-72.41-20.76-72.41l-62.11,22.93L148.31,285.2s2,54.27-20.76,72.41L53.23,401.07s-43,22.71-50.58,95.43H411.78C404.19,423.78,361.19,401.07,361.19,401.07Z" transform="translate(0.03 0)" fill="#ffdebc"/><path d="M148.31,285.2c-.75,32-6.89,50.71-6.89,50.71l128.93-17.69s-2.39-20.49-2.1-33H148.31Z" transform="translate(0.03 0)" fill="#fbc29a"/><path d="M208.21,39.22h-1.45c-14.14.57-104.25,7.78-97.35,99.94,7.49,100,25.41,133.12,25.41,133.12s9.63,34.34,72.38,32.13h.58c63.88.06,72.37-32.13,72.37-32.13s17.93-33.13,25.41-133.12C312.47,47,222.36,39.79,208.21,39.22Z" transform="translate(0.03 0)" fill="#ffdebc"/><path d="M228.84,144s11.69-8.51,29.67-6.77,23.17,6,23.17,6,1.17,10.28-5.55,7.91-21.59-7.61-37-.14c0,0-4.58,2.93-8.66,2.36C221.92,152.16,228.84,144,228.84,144Z" transform="translate(0.03 0)" fill="#b27b32"/><path d="M274.92,72.23s26.89,62.27,16.61,111.64l7.7,2.73c7.22-12.36,23-94.63-1.43-135.19Z" transform="translate(0.03 0)" fill="#ce9036"/><path d="M153.15,71.18l124.42,7.76s67.52-27,20.69-58.59c0,0-146.86-54.62-174.49,15.11,0,0-44.11,42.26-4,65.51C119.81,101,132.42,64,153.15,71.18Z" transform="translate(0.03 0)" fill="#e2a037"/><path d="M130.67,80.73S116.81,93,115.74,136.39c-.9,36.48,6.38,53.27,6.38,53.27l-9.36,1.06S91.29,101.6,104.42,65.91Z" transform="translate(0.03 0)" fill="#ce9036"/><ellipse cx="251.78" cy="168.8" rx="4.96" ry="9.41" fill="#288c61"/><path d="M310.62,99.55s-109,48.53-173.42,37l-36.73-26,.66,9.26s33.08,25.57,40.29,25.46,84.46.9,169.52-35.2Z" transform="translate(0.03 0)" fill="#1c2872"/><path d="M137.2,136.41s27.69-10.91,54.22,3.09c0,0,23.27,60.93-28.46,55.89S137.2,136.41,137.2,136.41Z" transform="translate(0.03 0)" fill="#0a1033"/><path d="M215.42,186.24l5.12,35.63.73,5.06,1.71-2.24H200.7a1.77,1.77,0,0,0,0,3.54H223a1.8,1.8,0,0,0,1.76-1.83,1.41,1.41,0,0,0,0-.41l-5.13-35.63-.73-5.06c-.32-2.25-3.74-1.29-3.41.94Z" transform="translate(0.03 0)" fill="#fbc29a"/><path d="M186,242.68c3.12,2.4,7.18,3.89,10.87,5.09,10.55,3.39,21.9,3.84,32.85,2.79,2.25-.21,2.27-3.76,0-3.54-10.67,1-21.64.64-31.9-2.67a33.51,33.51,0,0,1-10-4.73c-1.81-1.39-3.57,1.69-1.79,3.06Z" transform="translate(0.03 0)" fill="#f9b392"/><path d="M192.42,256.5a66.27,66.27,0,0,0,8.61,3.27c4.84,1.48,10.19,2.67,15.24,1.64,2.24-.46,1.29-3.87-.94-3.42-4.47.91-9.37-.4-13.62-1.72-1.87-.59-3.71-1.25-5.52-2l-.7-.29-.67-.28-.61-.28a1.83,1.83,0,0,0-2.43.63,1.79,1.79,0,0,0,.64,2.45Z" transform="translate(0.03 0)" fill="#fbc29a"/><path d="M194,61.2a118.55,118.55,0,0,1,24-5,148.28,148.28,0,0,1,56.39,3.74,1.79,1.79,0,0,0,1-3.44h0A150.94,150.94,0,0,0,218,52.61c-8.36,1-17,2.41-25,5.15-2.14.74-1.22,4.17,1,3.42Z" transform="translate(0.03 0)" fill="#ce9036"/><path d="M127.67,40.7a14.71,14.71,0,0,1,5,4.1,28.68,28.68,0,0,1,3.24,5.8,19.52,19.52,0,0,0,3.6,5c2.08,2.12,4.73,3.55,6.38,6.07a53.42,53.42,0,0,1,3.94,7.44c.93,2.08,4,.28,3.06-1.79a50.2,50.2,0,0,0-4.13-7.72c-1.81-2.69-4.51-4.23-6.75-6.5-3.16-3.22-4.13-7.75-7.08-11.15a17.13,17.13,0,0,0-5.51-4.31c-2.06-.93-3.86,2.12-1.79,3.06Z" transform="translate(0.03 0)" fill="#ce9036"/><path d="M145.67,57.35a33.87,33.87,0,0,0-6.62,1.91A29.06,29.06,0,0,0,127.31,67a1.84,1.84,0,0,0,0,2.51,1.8,1.8,0,0,0,2.51,0,25.91,25.91,0,0,1,10.54-7,33.1,33.1,0,0,1,6.26-1.77,1.78,1.78,0,0,0,1.23-2.18,1.81,1.81,0,0,0-2.18-1.24Z" transform="translate(0.03 0)" fill="#ce9036"/><path d="M135,46.05a26.66,26.66,0,0,0-17.57,8.65,1.82,1.82,0,0,0,0,2.51,1.79,1.79,0,0,0,2.5,0,22.1,22.1,0,0,1,9.84-6.4,28.18,28.18,0,0,1,4-1l.69-.12c.56-.09-.37,0,.12,0H135a1.78,1.78,0,1,0,.27-3.55H135Z" transform="translate(0.03 0)" fill="#ce9036"/><path d="M140.29,51c-.07-.13.24.59.11.24a.66.66,0,0,1-.06-.2v-.18c0-.5-.13.4,0,0l.12-.48c.15-.51-.19.3.09-.21.1-.18.2-.37.32-.55s.14-.19.2-.29-.09.12-.11.13l.19-.23a11.91,11.91,0,0,1,1.44-1.4c.08-.07.5-.39.2-.16a5.6,5.6,0,0,1,.49-.36c.41-.3.84-.57,1.27-.84a27.94,27.94,0,0,1,3.11-1.64,71.39,71.39,0,0,1,11.19-3.93,1.78,1.78,0,0,0-.93-3.4c-6,1.68-12.52,3.64-17.49,7.58-1.83,1.45-3.64,3.53-3.62,6a3.9,3.9,0,0,0,.41,1.74c1.06,2,4.12.23,3.07-1.79Z" transform="translate(0.03 0)" fill="#ce9036"/><path d="M164.54,23c3.42-2.3,7.79-3.48,11.73-4.41,12.62-3,26-2.47,38.73-.57,2.23.34,3.19-3.08.94-3.41-13.25-2-27-2.59-40.15.45-4.37,1-9.26,2.34-13,4.88-1.88,1.27-.11,4.34,1.79,3.06Z" transform="translate(0.03 0)" fill="#ce9036"/><path d="M306.92,42.62a251.93,251.93,0,0,0-31.16-6c-18.4-2.49-37.78-3.69-56,.84-2.22.56-1.28,4,.94,3.42,18.12-4.52,37.59-3.18,55.91-.59A248.76,248.76,0,0,1,306,46c2.21.59,3.15-2.83.94-3.42Z" transform="translate(0.03 0)" fill="#ce9036"/><path d="M375.75,404.07c-36.76-22.23-78.82-50.42-78.82-50.42l-3.51-39.15s-1.83-3-6.87,0l-66.27,40-11.8,34.8-11.77-34.8-66.29-40c-5-3-6.88,0-6.88,0l-3.48,39.16s-42,28.19-78.81,50.42-38.6,95.11-38.6,95.11H414.36S412.51,426.3,375.75,404.07Z" transform="translate(0.03 0)" fill="#ccecff"/><path d="M196,372.4l-4.07-11.23c-.56-1.53-3.23-2-3.54,0L184,389.76l2.7-1.12-57.44-32L121,352c-2.07-1.15-3.93,2.09-1.85,3.25l57.43,32,8.29,4.62a1.83,1.83,0,0,0,2.5-.66h0a1.54,1.54,0,0,0,.19-.46l4.3-28.59h-3.54l4.08,11.24C193.23,375.64,196.78,374.67,196,372.4Z" transform="translate(0.03 0)" fill="#86ccef"/><path d="M225.08,373.4l4.07-11.23h-3.54l4.31,28.59a1.83,1.83,0,0,0,2.23,1.32h0a1.86,1.86,0,0,0,.46-.19l57.43-32,8.3-4.62c2.07-1.16.22-4.4-1.86-3.25l-57.43,32-8.29,4.62,2.69,1.12-4.3-28.59c-.3-2-3-1.53-3.54,0l-4.07,11.23c-.82,2.27,2.72,3.25,3.54,1Z" transform="translate(0.03 0)" fill="#86ccef"/><path d="M206.67,389.32V498.18a1.84,1.84,0,0,0,3.67,0V389.32a1.84,1.84,0,0,0-3.67,0Z" transform="translate(0.03 0)" fill="#86ccef"/><path d="M160.31,48.5a33.87,33.87,0,0,0-6.62,1.91A29.29,29.29,0,0,0,142,58.16a1.82,1.82,0,0,0,0,2.51,1.79,1.79,0,0,0,2.5,0,25.91,25.91,0,0,1,10.54-7,33.1,33.1,0,0,1,6.26-1.77,1.81,1.81,0,0,0,1.24-2.18A1.84,1.84,0,0,0,160.31,48.5Z" transform="translate(0.03 0)" fill="#ce9036"/><path d="M102.69,364s82.15,56.65,82.73,135.21H0s-2.15-54,30.51-87.78Z" transform="translate(0.03 0)" fill="#1c2872"/><path d="M90.83,372,97,444.9l.87,10.35A1.79,1.79,0,0,0,99.63,457a1.54,1.54,0,0,0,.43-.06l28.15-9.34L126,445.44,120.14,473c-.57,2.66-1.2,4.11.92,6.05l11.64,10.66,10.19,9.35c1.68,1.54,4.19-1,2.5-2.51l-23-21.08.45,1.72,6.55-30.84a1.8,1.8,0,0,0-1.31-2.18,1.87,1.87,0,0,0-.88,0l-28.11,9.3,2.24,1.71L95.24,382.3,94.42,372c-.18-2.26-3.73-2.28-3.54,0Z" transform="translate(0.03 0)" fill="#0a1033"/><path d="M315.36,364s-82.16,56.65-82.77,135.21H418s2.15-54-30.52-87.78Z" transform="translate(0.03 0)" fill="#1c2872"/><path d="M323.67,372,317.55,445l-.87,10.35,2.25-1.71-28.15-9.34a1.79,1.79,0,0,0-2.18,1.29h0a1.68,1.68,0,0,0,0,.89l6.58,30.85.46-1.72-23,21.07c-1.68,1.54.83,4.05,2.51,2.51L296,480c2.13-1.95,2.84-2.68,2.23-5.57l-3.34-15.63L292,445.44l-2.18,2.18L318,457a1.8,1.8,0,0,0,2.19-1.29,1.52,1.52,0,0,0,.06-.42l6.12-73,.87-10.35c.19-2.28-3.36-2.27-3.55,0Z" transform="translate(0.03 0)" fill="#0a1033"/></svg>